<svg width="150" height="64" viewBox="0 0 150 64" fill="none" xmlns="http://www.w3.org/2000/svg">
<g clip-path="url(#clip0_37_541)">
<mask id="mask0_37_541" style="mask-type:luminance" maskUnits="userSpaceOnUse" x="0" y="0" width="150" height="64">
<path d="M150 0H0V64H150V0Z" fill="white"/>
</mask>
<g mask="url(#mask0_37_541)">
<mask id="mask1_37_541" style="mask-type:luminance" maskUnits="userSpaceOnUse" x="1" y="11" width="149" height="41">
<path d="M150 11H1V52H150V11Z" fill="white"/>
</mask>
<g mask="url(#mask1_37_541)">
<path d="M8.05271 50.3728L3 48.428V37.9336L8.05271 39.8768V50.3728Z" fill="#00B6FF"/>
<path d="M94.7327 11.4395H103.059V51.7309H94.7327V11.4395Z" fill="white"/>
<path d="M24.7593 12.207C28.9946 12.207 32.3648 13.0314 34.87 14.6804C37.3735 16.3293 38.6261 18.7851 38.6261 22.0477C38.6261 24.0349 38.1927 25.7544 37.3276 27.2078C36.4626 28.6629 35.2735 29.8327 33.7636 30.7188C35.8636 31.6754 37.5197 32.9262 38.7353 34.4694C39.951 36.0127 40.5587 37.7937 40.5587 39.8161C40.5587 41.9442 40.1624 43.7447 39.3713 45.2157C38.5785 46.6885 37.5109 47.8758 36.1667 48.7796C34.8225 49.6833 33.3021 50.3404 31.609 50.7474C29.9142 51.1561 28.1648 51.3587 26.3607 51.3587H12.827V12.207H24.7593ZM25.6983 28.2189C27.2821 28.2189 28.4502 27.7592 29.206 26.836C29.96 25.9146 30.3388 24.8682 30.3388 23.6967C30.3388 22.349 29.8684 21.3395 28.9293 20.6648C27.9904 19.9919 26.7289 19.6537 25.1452 19.6537H20.8359V28.2172H25.6983V28.2189ZM25.9749 44.178C27.742 44.178 29.2342 43.8328 30.4497 43.1405C31.6654 42.4481 32.2732 41.3418 32.2732 39.8161C32.2732 38.6817 31.942 37.8219 31.2796 37.2371C30.6172 36.6522 29.7609 36.2452 28.7109 36.0144C27.661 35.7836 26.5651 35.6691 25.4235 35.6691H20.8377V44.1798H25.9749V44.178Z" fill="white"/>
<path d="M91.8261 21.1828C90.2176 20.3442 88.581 19.6501 86.9161 19.1023C85.2512 18.5543 83.6903 18.2813 82.2369 18.2813C80.4363 18.2813 79.0217 18.6283 77.9876 19.3225C76.9533 20.0166 76.4372 21.056 76.4372 22.4424C76.4372 23.392 76.83 24.2411 77.614 24.9881C78.398 25.7368 79.4128 26.4027 80.6566 26.9858C81.9004 27.5706 83.1917 28.0992 84.5324 28.5731C86.1779 29.1579 87.767 29.8961 89.298 30.791C90.829 31.6859 92.0921 32.9085 93.0875 34.4588C94.0829 36.0109 94.5798 38.0632 94.5798 40.6176C94.5798 42.663 94.0248 44.5586 92.9149 46.3114C91.805 48.0643 90.1771 49.4789 88.0331 50.5535C85.889 51.6299 83.2481 52.169 80.1086 52.169C77.6968 52.169 75.2374 51.822 72.7305 51.1279C70.2235 50.4356 67.8592 49.3398 65.6394 47.8441L69.3144 41.6588C70.7696 42.6806 72.4345 43.5191 74.3107 44.1763C76.1853 44.8334 77.8713 45.161 79.3635 45.161C80.3589 45.161 81.363 45.0236 82.3779 44.7505C83.3908 44.4776 84.2347 44.0107 84.9042 43.3553C85.5737 42.6982 85.9084 41.7857 85.9084 40.6176C85.9084 39.4497 85.3059 38.3645 84.099 37.4696C82.894 36.5764 81.4476 35.8188 79.7634 35.1969C78.4614 34.7231 77.1225 34.1752 75.7431 33.555C74.3654 32.935 73.0723 32.1775 71.8671 31.2825C70.6621 30.3893 69.6844 29.276 68.9392 27.9424C68.1922 26.6105 67.8186 24.9775 67.8186 23.0431C67.8186 20.7071 68.3648 18.6829 69.4553 16.9671C70.5458 15.2512 72.0874 13.893 74.0782 12.8888C76.069 11.8864 78.3645 11.3279 80.9684 11.2188C84.3757 11.2188 87.1416 11.6028 89.2663 12.3692C91.3909 13.1354 93.2954 14.048 94.9797 15.1068L91.8208 21.1828H91.8261Z" fill="white"/>
<path d="M136.441 48.3897C135.98 48.7545 135.13 49.2477 133.886 49.8678C132.642 50.4897 131.121 51.0358 129.321 51.5097C127.521 51.9835 125.532 52.202 123.349 52.1667C120.018 52.0928 117.042 51.5202 114.421 50.4421C111.797 49.3657 109.577 47.8965 107.759 46.0344C105.941 44.1722 104.553 42.0371 103.597 39.6289C102.64 37.2206 102.16 34.6468 102.16 31.911C102.16 27.8239 103.022 24.2107 104.745 21.0714C106.468 17.9338 108.869 15.4692 111.951 13.6811C115.032 11.893 118.621 10.998 122.717 10.998C125.55 10.998 128.056 11.3627 130.24 12.0938C132.422 12.8249 134.202 13.6089 135.579 14.4474L132.306 21.9469C131.349 21.2546 130.075 20.5323 128.487 19.7836C126.897 19.0366 125.07 18.6614 123.002 18.6614C120.933 18.6614 118.859 19.2269 117.001 20.3579C115.145 21.4888 113.651 23.0128 112.523 24.9294C111.394 26.8462 110.828 29.027 110.828 31.4706C110.828 34.062 111.344 36.3345 112.378 38.2865C113.413 40.2384 114.885 41.7623 116.801 42.858C118.714 43.9521 120.953 44.4999 123.519 44.4999C125.776 44.4999 127.709 44.1529 129.317 43.4588C130.926 42.7665 132.151 42.0353 132.993 41.269L136.439 48.3863L136.441 48.3897Z" fill="white"/>
<path d="M54.9488 11.0879H53.3632L34.863 51.7299H43.0745L46.5206 43.8463H60.5318L63.8051 51.7299H73.4525L54.9488 11.0879ZM49.4468 37.1678L53.6962 27.3675L57.7729 37.1678H49.4468Z" fill="white"/>
<path d="M143.019 11C139.691 11 137 13.6766 137 16.9933C137 20.3166 139.703 23.0132 143.011 23C146.334 22.9834 149.004 20.3067 149 16.9933C149 13.6867 146.32 11 143.019 11ZM142.986 22.2533C140.09 22.2533 137.743 19.8899 137.747 16.9834C137.747 14.0966 140.109 11.7433 143 11.7433C145.903 11.7433 148.26 14.0999 148.26 16.9966C148.26 19.9065 145.903 22.2567 142.986 22.2533Z" fill="white"/>
<path d="M144.486 17.4451C145.412 17.0705 145.775 16.4231 145.677 15.5471C145.611 14.9535 145.29 14.5092 144.697 14.2457C144.295 14.068 143.867 14.0046 143.426 14.0014C142.67 13.9982 141.914 14.0014 141.157 14.0014C141.105 14.0014 141.052 14.0076 141 14.0108V19.997H142.138V19.9874V17.6895C142.525 17.6895 142.886 17.6958 143.247 17.6863C143.373 17.6831 143.432 17.7276 143.485 17.8228C143.607 18.0355 143.729 18.248 143.854 18.4608H143.847L144.706 20H146C146 20 145.998 19.997 146 19.997C145.486 19.1273 144.992 18.2956 144.49 17.4483L144.486 17.4451ZM142.152 16.8262V14.8741C142.667 14.8741 143.164 14.8425 143.655 14.8837C144.219 14.9281 144.529 15.2963 144.54 15.8295C144.549 16.3627 144.239 16.7658 143.686 16.8198C143.185 16.8674 142.674 16.8294 142.152 16.8294V16.8262Z" fill="white"/>
</g>
</g>
</g>
<defs>
<clipPath id="clip0_37_541">
<rect width="150" height="64" fill="white"/>
</clipPath>
</defs>
</svg>
