<?xml version="1.0" standalone="no"?>
<!DOCTYPE svg PUBLIC "-//W3C//DTD SVG 20010904//EN"
 "http://www.w3.org/TR/2001/REC-SVG-20010904/DTD/svg10.dtd">
<svg version="1.0" xmlns="http://www.w3.org/2000/svg"
 width="300.000000pt" height="300.000000pt" viewBox="0 0 300.000000 300.000000"
 preserveAspectRatio="xMidYMid meet">
<metadata>
Created by potrace 1.14, written by Peter Selinger 2001-2017
</metadata>
<g transform="translate(0.000000,300.000000) scale(0.100000,-0.100000)"
fill="#000000" stroke="none">
<path d="M1378 2224 c-2 -1 -19 -4 -38 -7 -48 -7 -132 -36 -151 -53 -8 -8 -19
-14 -22 -14 -18 0 -121 -98 -152 -145 -53 -76 -76 -153 -78 -248 -1 -87 9
-149 33 -198 l17 -37 -39 -39 c-68 -66 -83 -112 -50 -154 16 -19 30 -23 88
-25 38 -1 93 5 122 12 47 12 57 12 84 -2 78 -40 135 -52 235 -50 104 3 184 26
237 67 14 11 26 17 26 13 0 -4 27 21 61 57 73 78 89 97 89 107 0 5 9 26 20 49
10 22 22 53 25 69 12 54 12 180 0 227 l-12 46 44 7 c58 9 75 1 64 -28 -5 -13
-17 -23 -27 -23 -15 0 -20 -9 -22 -42 l-3 -43 48 4 c26 3 50 5 52 5 2 1 -2 8
-9 16 -9 11 -8 18 8 35 24 26 34 68 20 93 -19 37 -75 48 -181 34 -11 -1 -25
10 -35 27 -83 144 -235 233 -409 241 -24 1 -44 1 -45 -1z m-328 -798 c18 -19
32 -37 31 -42 -1 -9 -46 -17 -101 -18 -23 -1 -35 4 -35 12 0 14 55 81 67 82 3
0 21 -15 38 -34z"/>
<path d="M500 1160 c-11 -7 -12 -10 -2 -10 10 0 13 -20 10 -85 -3 -85 -3 -85
22 -85 14 0 20 3 14 8 -7 4 -11 40 -10 95 1 87 -3 97 -34 77z"/>
<path d="M580 1160 c-10 -6 -11 -10 -2 -10 8 0 12 -23 12 -79 0 -54 -4 -81
-12 -84 -7 -3 3 -6 22 -6 20 0 30 3 23 7 -9 6 -12 35 -10 95 2 87 -2 97 -33
77z"/>
<path d="M906 1163 c-15 -4 -16 -7 -5 -14 10 -6 14 -30 14 -86 l0 -78 32 -3
c24 -2 39 3 58 22 30 30 32 59 5 86 -16 16 -25 18 -45 10 -22 -8 -25 -7 -27
13 0 12 -1 30 0 40 2 18 0 18 -32 10z m93 -100 c9 -21 9 -30 -4 -49 -25 -39
-59 -27 -60 21 -1 53 44 73 64 28z"/>
<path d="M1524 1159 c-16 -4 -24 -7 -18 -8 15 -1 16 -141 2 -158 -8 -10 -1
-12 26 -11 23 1 32 4 24 9 -7 5 -13 25 -14 45 -1 35 0 36 33 31 28 -5 33 -3
33 14 0 16 -3 17 -19 8 -28 -18 -50 -5 -48 28 2 24 7 28 34 31 23 2 33 -1 37
-15 3 -12 4 -10 3 6 -2 20 -8 24 -33 25 -16 1 -43 -2 -60 -5z"/>
<path d="M370 1148 c0 -7 -17 -47 -38 -89 l-37 -75 25 -2 c17 -1 21 1 12 7 -8
4 -13 11 -13 15 1 10 24 32 41 39 12 4 11 6 -2 6 -17 1 -17 3 -1 36 19 39 27
38 42 -5 5 -17 6 -28 1 -25 -5 3 -11 1 -15 -5 -3 -5 3 -10 13 -10 23 0 38 -40
19 -52 -7 -5 1 -8 20 -8 l32 0 -30 68 c-47 104 -52 112 -61 112 -4 0 -8 -6 -8
-12z"/>
<path d="M780 1135 c-21 -55 -64 -140 -74 -147 -6 -4 5 -7 24 -7 19 1 27 3 18
6 -10 2 -18 8 -18 11 2 42 93 60 105 21 5 -14 2 -25 -6 -30 -9 -5 1 -8 26 -7
22 1 35 3 29 5 -6 2 -26 42 -45 88 -19 47 -37 85 -42 85 -4 0 -12 -11 -17 -25z
m25 -45 c20 -39 20 -40 -16 -40 -26 0 -30 3 -24 18 4 9 10 25 12 35 7 23 10
22 28 -13z"/>
<path d="M1662 1151 c4 -13 18 -16 19 -4 0 4 -5 9 -11 12 -7 2 -11 -2 -8 -8z"/>
<path d="M1365 1130 c-3 -5 -4 -10 0 -10 3 0 1 -8 -4 -19 -6 -10 -7 -21 -3
-25 3 -4 7 -26 7 -49 0 -36 3 -42 23 -45 12 -2 22 2 22 8 0 6 -4 8 -10 5 -11
-7 -12 -5 -15 40 -2 34 12 58 28 48 6 -3 7 -1 3 5 -4 6 -13 9 -20 6 -10 -4
-12 2 -9 20 5 26 -10 36 -22 16z"/>
<path d="M1094 1103 c-25 -5 -51 -50 -46 -80 2 -12 15 -29 29 -38 14 -9 24
-13 21 -8 -2 4 -10 20 -17 35 -24 47 10 102 47 79 27 -17 21 -100 -7 -102 -13
0 -13 -2 -2 -6 9 -4 24 6 37 22 18 23 20 33 12 57 -8 24 -38 52 -50 47 -2 -1
-12 -4 -24 -6z"/>
<path d="M1215 1100 c-4 -6 -10 -8 -15 -5 -5 3 -5 -7 -1 -22 4 -16 7 -35 6
-43 -3 -43 44 -67 73 -38 9 9 12 9 12 0 0 -7 10 -12 23 -11 12 0 16 3 10 6 -8
3 -13 26 -13 62 0 58 0 58 -27 53 -20 -4 -23 -7 -10 -10 19 -4 22 -36 7 -76
-10 -28 -17 -31 -40 -16 -10 6 -14 24 -13 59 2 51 0 60 -12 41z"/>
<path d="M1726 1100 c-15 -5 -16 -8 -5 -12 18 -7 16 -87 -3 -99 -8 -6 2 -8 27
-8 23 0 33 3 24 7 -10 5 -15 19 -14 42 2 45 11 60 35 60 18 0 34 -31 29 -56
-4 -23 2 -54 11 -54 6 0 10 17 10 38 0 76 -21 103 -62 81 -13 -7 -23 -8 -27
-1 -3 5 -15 6 -25 2z"/>
<path d="M1903 1099 c-13 -5 -23 -14 -23 -21 0 -9 3 -9 12 0 7 7 20 12 31 12
31 0 15 -33 -21 -42 -29 -8 -33 -13 -30 -36 3 -30 33 -42 52 -21 8 9 8 10 0 6
-15 -9 -35 15 -26 29 4 6 17 14 29 18 19 6 21 3 20 -25 -2 -27 2 -32 23 -35
17 -3 21 -1 11 5 -8 5 -14 28 -15 56 -1 53 -21 70 -63 54z"/>
<path d="M2065 1100 c-3 -5 -19 -7 -36 -3 -28 5 -29 4 -21 -18 10 -29 9 -69
-1 -86 -6 -9 -1 -13 13 -13 18 0 20 5 17 46 -3 41 -1 47 21 57 30 14 42 -2 42
-60 0 -38 3 -43 23 -43 12 0 17 4 12 8 -6 4 -12 27 -14 52 -3 53 -37 90 -56
60z"/>
<path d="M2193 1095 c-18 -8 -33 -20 -34 -27 0 -7 -2 -21 -4 -30 -7 -37 71
-79 90 -49 3 6 -4 8 -15 6 -29 -6 -52 22 -48 59 2 24 8 32 27 34 13 2 28 -2
32 -10 6 -9 9 -7 9 10 0 25 -12 27 -57 7z"/>
<path d="M2330 1104 c0 -3 5 -15 11 -26 9 -16 8 -23 -2 -29 -10 -6 -8 -9 9 -9
29 0 30 40 2 58 -11 7 -20 10 -20 6z"/>
<path d="M2412 1094 c-28 -19 -16 -47 28 -62 21 -8 28 -16 24 -26 -7 -18 -54
-22 -54 -5 0 5 -5 7 -10 4 -17 -11 0 -25 30 -25 31 0 63 25 57 44 -2 6 -20 19
-41 29 -37 18 -38 19 -20 38 21 23 16 24 -14 3z"/>
<path d="M2450 1104 c0 -3 7 -12 15 -20 13 -13 15 -13 15 -1 0 8 -7 17 -15 21
-8 3 -15 3 -15 0z"/>
<path d="M1650 1092 c0 -5 3 -12 7 -16 4 -4 6 -27 4 -51 -2 -41 -1 -45 21 -45
13 0 18 3 12 8 -6 4 -10 31 -10 60 1 44 -1 52 -16 52 -10 0 -18 -4 -18 -8z"/>
<path d="M2279 1079 c-21 -21 -20 -59 3 -86 12 -15 57 -17 78 -3 11 7 6 8 -18
5 -24 -3 -35 1 -42 15 -13 25 -13 28 8 33 16 4 16 5 0 6 -10 0 -18 8 -18 16 0
7 8 19 18 24 9 6 11 11 5 11 -7 0 -22 -9 -34 -21z"/>
<path d="M658 867 c-2 -39 0 -53 9 -50 6 3 9 16 7 30 -3 17 -1 22 7 17 8 -5 9
-3 3 7 -4 8 -9 20 -10 27 -5 33 -12 19 -16 -31z"/>
<path d="M1867 909 c7 -7 15 -10 18 -7 3 3 -2 9 -12 12 -14 6 -15 5 -6 -5z"/>
<path d="M2201 920 c-8 -21 -4 -100 4 -100 7 0 9 16 7 38 -4 42 -9 69 -11 62z"/>
<path d="M330 901 c0 -5 7 -14 16 -22 10 -8 14 -23 12 -41 -3 -16 0 -27 5 -25
6 2 11 15 11 29 1 15 10 37 21 50 l20 23 -27 -23 c-26 -24 -26 -24 -33 -3 -6
21 -25 30 -25 12z"/>
<path d="M709 908 c-3 -11 -5 -48 -3 -48 11 0 23 40 14 45 -5 3 -10 5 -11 3z"/>
<path d="M1140 865 c0 -25 3 -45 8 -45 4 0 7 20 8 45 0 25 -3 45 -8 45 -4 0
-8 -20 -8 -45z"/>
<path d="M1215 865 c0 -25 5 -45 10 -45 6 0 11 20 10 45 0 25 -4 45 -10 45 -5
0 -10 -20 -10 -45z"/>
<path d="M1250 906 c0 -2 7 -7 16 -10 8 -3 12 -2 9 4 -6 10 -25 14 -25 6z"/>
<path d="M1728 865 c5 -58 17 -58 17 0 0 25 -5 45 -10 45 -6 0 -9 -19 -7 -45z"/>
<path d="M1806 894 c-11 -28 -6 -50 12 -67 10 -10 22 -17 27 -17 5 0 -1 9 -13
20 -25 24 -25 21 -12 54 5 14 6 26 1 26 -5 0 -12 -7 -15 -16z"/>
<path d="M2238 888 c-9 -25 5 -68 21 -68 13 0 13 2 2 9 -9 6 -11 18 -7 34 6
25 -9 48 -16 25z"/>
<path d="M2437 894 c-9 -17 -1 -68 12 -72 10 -3 10 0 2 15 -6 12 -6 24 -1 29
5 5 5 15 1 23 -5 7 -11 9 -14 5z"/>
<path d="M590 881 c-22 -9 -24 -61 -2 -61 10 0 13 3 7 8 -15 10 -13 31 5 42
18 11 10 20 -10 11z"/>
<path d="M1414 878 c-4 -6 -3 -8 4 -4 12 7 21 -4 27 -35 7 -33 14 -35 11 -3
-2 16 -4 32 -5 35 -2 13 -30 18 -37 7z"/>
<path d="M1564 865 c-17 -26 -17 -28 1 -41 10 -8 21 -12 24 -9 2 3 -4 11 -13
18 -17 13 -17 14 -1 31 10 9 15 19 12 22 -3 3 -13 -6 -23 -21z"/>
<path d="M1941 866 c11 -23 10 -29 -1 -36 -23 -14 -42 8 -28 34 10 19 10 20
-5 7 -21 -17 -21 -25 -1 -45 12 -12 20 -13 35 -6 23 13 25 43 3 60 -13 12 -14
10 -3 -14z"/>
<path d="M2006 881 c-4 -6 -2 -11 3 -11 6 0 11 -12 11 -27 0 -19 3 -24 11 -16
8 8 7 18 -4 38 -9 18 -17 24 -21 16z"/>
<path d="M404 866 c-6 -15 14 -61 23 -53 2 3 0 15 -7 26 -6 12 -8 26 -5 31 3
6 4 10 0 10 -3 0 -8 -6 -11 -14z"/>
<path d="M449 861 c6 -10 7 -21 4 -25 -3 -3 -1 -6 5 -6 18 0 15 37 -3 44 -12
4 -13 2 -6 -13z"/>
<path d="M485 853 c1 -19 7 -28 18 -29 11 -1 12 0 3 3 -9 3 -13 13 -10 29 2
13 0 24 -4 24 -5 0 -8 -12 -7 -27z"/>
<path d="M528 845 c2 -19 7 -33 11 -30 9 5 1 65 -8 65 -4 0 -5 -16 -3 -35z"/>
<path d="M730 851 c0 -30 26 -49 43 -32 6 6 2 9 -9 8 -15 -2 -19 4 -18 26 1
15 -3 27 -7 27 -5 0 -9 -13 -9 -29z"/>
<path d="M766 865 c4 -8 10 -12 15 -9 11 6 2 24 -11 24 -5 0 -7 -7 -4 -15z"/>
<path d="M804 855 c2 -14 7 -30 12 -35 7 -7 9 3 6 25 -2 19 -8 35 -12 35 -5 0
-7 -11 -6 -25z"/>
<path d="M850 868 c0 -9 9 -20 20 -23 11 -4 17 -11 14 -17 -4 -7 -2 -8 4 -4
17 10 15 26 -3 26 -7 0 -19 8 -24 18 -9 15 -10 16 -11 0z"/>
<path d="M878 873 c7 -3 16 -2 19 1 4 3 -2 6 -13 5 -11 0 -14 -3 -6 -6z"/>
<path d="M917 873 c-10 -9 -9 -41 1 -47 5 -3 9 8 9 24 0 33 -1 33 -10 23z"/>
<path d="M957 860 c3 -11 -1 -28 -8 -38 -12 -15 -11 -15 8 1 20 17 22 57 3 57
-5 0 -6 -9 -3 -20z"/>
<path d="M990 850 c0 -39 15 -39 16 0 1 17 -3 30 -7 30 -5 0 -9 -13 -9 -30z"/>
<path d="M1026 869 c6 -8 10 -22 9 -31 -2 -10 1 -18 7 -18 15 0 5 53 -12 58
-12 4 -13 2 -4 -9z"/>
<path d="M1097 848 c2 -45 2 -45 12 -30 9 14 3 62 -8 62 -3 0 -5 -15 -4 -32z"/>
<path d="M1292 847 c1 -20 5 -34 9 -31 9 5 6 51 -4 60 -4 4 -6 -9 -5 -29z"/>
<path d="M1332 845 c1 -19 4 -33 7 -29 9 9 9 64 0 64 -5 0 -8 -16 -7 -35z"/>
<path d="M1375 849 c8 -44 15 -50 15 -11 0 17 -5 34 -10 37 -7 4 -9 -5 -5 -26z"/>
<path d="M1475 850 c0 -16 3 -30 6 -30 4 0 9 14 11 30 3 17 0 30 -6 30 -6 0
-11 -13 -11 -30z"/>
<path d="M1510 871 c0 -6 4 -11 9 -11 5 0 7 -9 4 -20 -3 -11 -1 -20 4 -20 14
0 10 53 -4 58 -7 2 -13 -1 -13 -7z"/>
<path d="M1620 852 c0 -18 5 -32 10 -32 6 0 8 12 6 26 -7 39 -16 42 -16 6z"/>
<path d="M1692 848 c1 -20 6 -34 10 -32 10 6 6 50 -5 61 -5 4 -7 -9 -5 -29z"/>
<path d="M1980 878 c-7 -19 -4 -66 3 -59 5 5 7 21 4 37 -2 16 -5 26 -7 22z"/>
<path d="M2055 869 c-8 -12 -8 -12 20 -27 11 -6 14 -12 8 -12 -7 0 -13 -5 -13
-11 0 -8 5 -8 15 1 21 17 19 27 -6 33 -12 3 -18 10 -14 16 3 6 4 11 1 11 -3 0
-8 -5 -11 -11z"/>
<path d="M2116 853 c9 -39 13 -44 32 -41 20 4 31 26 24 50 -7 27 -18 21 -17
-9 0 -14 -6 -28 -12 -30 -9 -3 -13 6 -13 26 0 17 -5 31 -10 31 -6 0 -8 -11 -4
-27z"/>
<path d="M2309 871 c8 -5 12 -18 8 -30 -3 -12 -1 -24 4 -27 5 -3 9 11 9 30 0
28 -4 36 -17 36 -14 0 -15 -2 -4 -9z"/>
<path d="M2350 849 c0 -16 4 -29 9 -29 4 0 8 10 7 22 -1 15 6 24 18 26 15 3
18 0 13 -17 -3 -12 -1 -24 5 -27 6 -4 8 6 6 22 -2 24 -8 29 -30 30 -24 1 -28
-3 -28 -27z"/>
<path d="M1255 860 c3 -5 8 -10 11 -10 2 0 4 5 4 10 0 6 -5 10 -11 10 -5 0 -7
-4 -4 -10z"/>
<path d="M1071 846 c-7 -8 -8 -17 -3 -20 6 -3 12 3 15 14 6 24 4 25 -12 6z"/>
<path d="M1661 846 c-8 -10 -8 -16 1 -24 10 -8 13 -4 13 14 0 28 1 28 -14 10z"/>
<path d="M1407 844 c-8 -8 1 -24 12 -24 4 0 8 7 8 15 0 16 -9 20 -20 9z"/>
<path d="M2280 838 c0 -9 5 -20 10 -23 13 -8 13 5 0 25 -8 13 -10 13 -10 -2z"/>
</g>
</svg>
